<svg xmlns="http://www.w3.org/2000/svg" viewBox="0 0 750 500"><g id="freepik--background-simple--inject-58"><path d="M528.16,150.63l-2-3.27c-16.95-27.58-47.6-44.2-79.91-42.19a86.12,86.12,0,0,0-12.37,1.68c-29.37,6.21-54.93,28.15-65.53,56.24-6.23,16.52-8,35.55-19.79,48.66-15.39,17.07-41.52,17.6-64.49,16.9s-49.11-.11-64.43,17C210,256.41,207,271.67,207.77,286c2,38,28.89,72.07,63,89s74.35,18.42,111.72,11c52.36-10.42,102.15-39,132.07-83.24S552.1,198.34,528.16,150.63Z" style="fill:#e0e0e0"></path></g><g id="freepik--Character--inject-58"><path d="M478.94,368.52l-23.93,8H241.8a4.51,4.51,0,0,1-4.51-4.51h0a4.51,4.51,0,0,1,4.51-4.52H454.2l22.44-7Z" style="fill:#455a64"></path><rect x="428.03" y="376.55" width="3.93" height="20.54" style="fill:#e0e0e0"></rect><path d="M428.48,392c0,6.56-4.15,11.88-9.27,11.88h-9s-.26-8.32-.26-11.88c0-3.11-1.26-9.77.26-11.88H419C424.09,380.07,428.48,385.39,428.48,392Z" style="fill:#263238"></path><ellipse cx="410.2" cy="391.95" rx="9.27" ry="11.88" style="fill:#455a64"></ellipse><path d="M412.82,392c0,1.85-1.17,3.35-2.62,3.35s-2.63-1.5-2.63-3.35,1.18-3.36,2.63-3.36S412.82,390.1,412.82,392Z" style="fill:#263238"></path><path d="M459.51,392c0,6.56-4.15,11.88-9.27,11.88h-9S441,395.51,441,392c0-3.11-1.26-9.77.26-11.88H450C455.12,380.07,459.51,385.39,459.51,392Z" style="fill:#263238"></path><ellipse cx="441.23" cy="391.95" rx="9.27" ry="11.88" style="fill:#455a64"></ellipse><ellipse cx="441.23" cy="391.95" rx="2.63" ry="3.35" style="fill:#263238"></ellipse><path d="M438.57,394.93h-6.92a3.17,3.17,0,0,1-3.17-3.17h0a3.17,3.17,0,0,1,3.17-3.17h6.92a3.17,3.17,0,0,1,3.17,3.17h0A3.17,3.17,0,0,1,438.57,394.93Z" style="fill:#e0e0e0"></path><rect x="292.8" y="376.55" width="3.93" height="20.54" style="fill:#e0e0e0"></rect><path d="M293.26,392c0,6.56-4.15,11.88-9.27,11.88h-9s-.26-8.32-.26-11.88c0-3.11-1.26-9.77.26-11.88h8.76C288.86,380.07,293.26,385.39,293.26,392Z" style="fill:#263238"></path><ellipse cx="274.98" cy="391.95" rx="9.27" ry="11.88" style="fill:#455a64"></ellipse><path d="M277.6,392c0,1.85-1.17,3.35-2.62,3.35s-2.63-1.5-2.63-3.35,1.18-3.36,2.63-3.36S277.6,390.1,277.6,392Z" style="fill:#263238"></path><path d="M324.29,392c0,6.56-4.15,11.88-9.27,11.88h-9s-.25-8.32-.25-11.88c0-3.11-1.27-9.77.25-11.88h8.77C319.89,380.07,324.29,385.39,324.29,392Z" style="fill:#263238"></path><ellipse cx="306" cy="391.95" rx="9.27" ry="11.88" style="fill:#455a64"></ellipse><ellipse cx="306" cy="391.95" rx="2.63" ry="3.35" style="fill:#263238"></ellipse><path d="M303.35,394.93h-6.92a3.17,3.17,0,0,1-3.17-3.17h0a3.17,3.17,0,0,1,3.17-3.17h6.92a3.17,3.17,0,0,1,3.17,3.17h0A3.17,3.17,0,0,1,303.35,394.93Z" style="fill:#e0e0e0"></path><path d="M299.69,353.94l-21.21,53.57-66.79-26.05c2.88-6.22,42.43-5.56,42.43-5.56L266.3,341Z" style="fill:#FFC100"></path><g style="opacity:0.6000000000000001"><path d="M275.9,381.06a2.93,2.93,0,0,1,.67,3.85,2.81,2.81,0,0,1-3.81.7,3.09,3.09,0,0,1-.69-4.08c.94-1.09,3.11-1.38,4-.29" style="fill:#fff"></path></g><g style="opacity:0.6000000000000001"><path d="M278.48,407.51,280.4,402,215.65,379.1s-3.48.14-4,2.36Z" style="fill:#fff"></path></g><path d="M253.17,375.14c-.12.33,1.45,1.12,2.65,2.79s1.51,3.38,1.86,3.37.6-2.09-.88-4.09S253.21,374.81,253.17,375.14Z" style="fill:#263238"></path><path d="M245,375.31c-.2.28,1,1.39,1.57,3.2s.32,3.4.65,3.51,1.26-1.65.51-3.89S245.16,375,245,375.31Z" style="fill:#263238"></path><path d="M237.78,382.14c.27.18,1.36-1.27,1.22-3.38s-1.39-3.42-1.63-3.2.32,1.54.41,3.28S237.47,382,237.78,382.14Z" style="fill:#263238"></path><path d="M256.82,367.5c0,.35,1.7.48,3.49,1.33s3,2,3.28,1.77-.64-1.91-2.77-2.88S256.76,367.18,256.82,367.5Z" style="fill:#263238"></path><path d="M261.5,360.2c-.05.13,1.16.83,3.36,1.28a15.61,15.61,0,0,0,3.91.29,15.89,15.89,0,0,0,2.32-.27,4.11,4.11,0,0,0,1.32-.39,1.53,1.53,0,0,0,.83-1.68,2,2,0,0,0-1.14-1.3,4.61,4.61,0,0,0-1.32-.31,12.66,12.66,0,0,0-6.24.72c-2.1.83-3.11,1.84-3,1.95s1.26-.56,3.29-1.13a14.16,14.16,0,0,1,3.64-.52,13.29,13.29,0,0,1,2.15.16c.78.09,1.39.32,1.45.7,0,.15,0,.2-.22.35a3.77,3.77,0,0,1-1,.28,17.36,17.36,0,0,1-2.16.32,19,19,0,0,1-3.72,0C262.86,360.42,261.57,360,261.5,360.2Z" style="fill:#263238"></path><path d="M261.75,360.83c.09.09,1.2-.82,2.14-2.89a11.72,11.72,0,0,0,1-3.84,11.07,11.07,0,0,0-.06-2.36,3,3,0,0,0-1.47-2.52,1.67,1.67,0,0,0-1.76.39,4.64,4.64,0,0,0-.83,1.09,8.14,8.14,0,0,0-.88,2.25,8.36,8.36,0,0,0,.08,4c.63,2.24,1.84,3.16,1.91,3.06s-.72-1.19-1.07-3.24a8.43,8.43,0,0,1,.17-3.56,7.55,7.55,0,0,1,.82-1.91c.38-.67.87-1.14,1.11-1a2.07,2.07,0,0,1,.74,1.55,12.08,12.08,0,0,1,.12,2.14,12.93,12.93,0,0,1-.65,3.59C262.41,359.63,261.59,360.71,261.75,360.83Z" style="fill:#263238"></path><path d="M354.79,357.7l-8.2,57-71-9.84c1.36-6.73,40-15.26,40-15.26l3.76-36.75Z" style="fill:#FFC100"></path><g style="opacity:0.6000000000000001"><path d="M337.94,389.6a2.94,2.94,0,0,1,1.55,3.59,2.81,2.81,0,0,1-3.54,1.56,3.08,3.08,0,0,1-1.62-3.8c.66-1.28,2.7-2.07,3.86-1.22" style="fill:#fff"></path></g><g style="opacity:0.6000000000000001"><path d="M346.59,414.73l.6-5.78-68.31-7.28s-3.35.94-3.3,3.22Z" style="fill:#fff"></path></g><path d="M314.46,389.11c0,.35,1.67.75,3.23,2.1s2.25,2.94,2.59,2.84.1-2.16-1.81-3.77S314.43,388.79,314.46,389.11Z" style="fill:#263238"></path><path d="M306.58,391.16c-.12.33,1.3,1.13,2.27,2.75s1.1,3.23,1.45,3.27.84-1.9-.41-3.91S306.64,390.83,306.58,391.16Z" style="fill:#263238"></path><path d="M301.12,399.49c.3.12,1-1.55.4-3.57s-2.15-3-2.33-2.74.67,1.43,1.16,3.1S300.78,399.41,301.12,399.49Z" style="fill:#263238"></path><path d="M316.24,380.83c.11.34,1.76.08,3.7.49s3.39,1.23,3.61,1-1.08-1.71-3.37-2.16S316.11,380.54,316.24,380.83Z" style="fill:#263238"></path><path d="M319.1,372.64c0,.14,1.32.55,3.56.48a16.3,16.3,0,0,0,3.88-.63,17.13,17.13,0,0,0,2.19-.8,4.27,4.27,0,0,0,1.19-.69,1.53,1.53,0,0,0,.42-1.82,1.91,1.91,0,0,0-1.41-1,4.78,4.78,0,0,0-1.36,0,13.61,13.61,0,0,0-2.32.46,12.63,12.63,0,0,0-3.57,1.69c-1.86,1.3-2.61,2.52-2.5,2.6s1.1-.84,2.95-1.86a14.42,14.42,0,0,1,3.42-1.35,13.93,13.93,0,0,1,2.13-.35c.78-.09,1.42,0,1.56.36.06.13.06.18-.13.38a3.44,3.44,0,0,1-.87.5,19.61,19.61,0,0,1-2,.82,20.06,20.06,0,0,1-3.62.84C320.48,372.54,319.12,372.45,319.1,372.64Z" style="fill:#263238"></path><path d="M319.49,373.2c.11.07,1-1.08,1.41-3.3a11.78,11.78,0,0,0,.05-4,11.08,11.08,0,0,0-.6-2.29,3,3,0,0,0-2-2.11,1.68,1.68,0,0,0-1.62.79,4.6,4.6,0,0,0-.55,1.25,7.8,7.8,0,0,0-.33,2.4,8.22,8.22,0,0,0,1,3.88c1.14,2,2.53,2.65,2.57,2.53s-1-1-1.79-2.91A8.24,8.24,0,0,1,317,366a7.41,7.41,0,0,1,.35-2.05c.21-.74.58-1.31.85-1.19s.88.69,1.09,1.33a12.84,12.84,0,0,1,.61,2.05,13,13,0,0,1,.2,3.65C319.85,371.88,319.3,373.12,319.49,373.2Z" style="fill:#263238"></path><path d="M460.81,292.85l-.89-46.27,1.7-42.14c-.71-15-21.58-28.25-31.55-32.93l-23.21-7.59-24.75,5.38-23.44,7.57c-3.71,1.06-16,7.84-18.86,10.42l-69.95,59.59L289.33,285l72.39-56.85,1.84,11.68,2.79,55.68s24.22,5.42,42,13.63,46,34.66,46,34.66c13.44,3.11,12.75-16.05,12.75-16.05Z" style="fill:#FFC100"></path><path d="M377.63,211.66s-26.59-4.4-39.34,19.48c-7.94,14.88-26.43,130.35-26.43,130.35l47.74,7,6-26.6L363,353.34A15.41,15.41,0,0,0,378.12,367c17.19.23,45,.57,48.4.32,17.33-1.26,33.34-23.74,33.34-23.74L431,304.19S405.83,216,377.63,211.66Z" style="fill:#263238"></path><path d="M322.25,206.86s-21.3,0-28.38,16.66c-6.54,15.39-38.71,124.24-38.71,124.24l43.71,16.78,32.31-80.09,22.32-56.14S338.09,209.74,322.25,206.86Z" style="fill:#263238"></path><path d="M349.78,94c5.34-2.61,12,1.48,17.56-.56,3.39-1.24,5.59-4.45,8.42-6.69,4.24-3.33,10.75-4.8,15.88-3.14s8.61,3.74,10.1,8.93c3.93-3.17,12,1.13,15.3,6s3.53,10.39,3,16.24a77.45,77.45,0,0,1-8.37,28.94c-.41.79-1.12,1.71-2,1.47-.6-.18-.89-.83-1.08-1.42-1.65-5-1.83-10.37-2.21-15.64s-1-10.65-3.44-15.34-7-8.59-12.29-8.78c-3.89-.15-7.62,1.7-10.68,4.12s-5.61,5.41-8.46,8.07-6.16,5-10,5.81-8.24-.38-10.43-3.61-1.14-8.46,2.5-9.86A7.66,7.66,0,0,1,349.78,94Z" style="fill:#263238"></path><path d="M381.43,181.48l-1.23-11.22s-15.13-.48-17.14-15.3c-1-7.15-1.77-22.05-2.34-35.54a27.87,27.87,0,0,1,24.43-28.83l1.44-.17c15.54-1,25.08,11.64,25.65,27.22l5.92,60a18.47,18.47,0,0,1-16.45,20.18h0A18.46,18.46,0,0,1,381.43,181.48Z" style="fill:#ffbe9d"></path><path d="M380.18,170.25a34.76,34.76,0,0,0,18.67-7.88s-3.26,11.24-18.23,11.73Z" style="fill:#eb996e"></path><path d="M367.53,128.5a2.13,2.13,0,0,0,2.3,1.88,2,2,0,0,0,1.95-2.18,2.12,2.12,0,0,0-2.3-1.88A2,2,0,0,0,367.53,128.5Z" style="fill:#263238"></path><path d="M364.81,126.28c.29.25,1.75-1.14,4-1.42s4.1.66,4.31.35c.11-.13-.22-.6-1-1a5.87,5.87,0,0,0-3.49-.62,5.6,5.6,0,0,0-3.17,1.47C364.84,125.64,364.66,126.17,364.81,126.28Z" style="fill:#263238"></path><path d="M389.72,126.46a2.12,2.12,0,0,0,2.3,1.88,2,2,0,0,0,2-2.18,2.13,2.13,0,0,0-2.3-1.88A2,2,0,0,0,389.72,126.46Z" style="fill:#263238"></path><path d="M387.27,124c.3.24,1.76-1.15,4-1.42s4.09.66,4.31.35c.1-.14-.22-.61-1-1a5.87,5.87,0,0,0-3.49-.62,5.6,5.6,0,0,0-3.17,1.47C387.31,123.31,387.13,123.84,387.27,124Z" style="fill:#263238"></path><path d="M381.08,141.88a15.45,15.45,0,0,0-3.78-.22c-.59,0-1.16,0-1.31-.42a3,3,0,0,1,.18-1.77c.37-1.48.76-3,1.18-4.65,1.61-6.6,2.7-12,2.43-12.07S378,128,376.38,134.6c-.38,1.63-.75,3.18-1.1,4.66a3.38,3.38,0,0,0,0,2.33,1.51,1.51,0,0,0,1.06.73,3.82,3.82,0,0,0,1,0A15.2,15.2,0,0,0,381.08,141.88Z" style="fill:#263238"></path><path d="M388,142.63c-.38,0-.08,2.5-2,4.52s-4.57,2.07-4.55,2.41c0,.16.65.41,1.77.31A6.23,6.23,0,0,0,387,148a5.43,5.43,0,0,0,1.5-3.77C388.51,143.17,388.15,142.59,388,142.63Z" style="fill:#263238"></path><path d="M385.61,112.29c.3.59,2.54,0,5.26,0s5,.46,5.25-.14c.13-.29-.32-.83-1.27-1.32a9.18,9.18,0,0,0-8,.1C385.91,111.46,385.48,112,385.61,112.29Z" style="fill:#263238"></path><path d="M364.83,119.58c.47.47,2-.26,3.86-.52s3.53-.08,3.83-.67c.13-.28-.19-.77-.95-1.18a5.63,5.63,0,0,0-6.19,1C364.78,118.79,364.62,119.35,364.83,119.58Z" style="fill:#263238"></path><path d="M412.38,128.77c.24-.14,9.83-4.27,10.75,5.92s-9.49,9-9.53,8.72S412.38,128.77,412.38,128.77Z" style="fill:#ffbe9d"></path><path d="M416.36,139.27s.19.11.5.22a1.81,1.81,0,0,0,1.33-.1c1-.49,1.79-2.28,1.67-4.12a5.89,5.89,0,0,0-.73-2.5,2.07,2.07,0,0,0-1.46-1.24.91.91,0,0,0-1,.59c-.11.29,0,.49-.08.51s-.23-.15-.19-.58a1.19,1.19,0,0,1,.34-.67,1.35,1.35,0,0,1,1-.35,2.49,2.49,0,0,1,2,1.41,6,6,0,0,1,.87,2.78c.12,2.06-.75,4.08-2.19,4.64a1.91,1.91,0,0,1-1.64-.12C416.4,139.51,416.32,139.29,416.36,139.27Z" style="fill:#eb996e"></path><path d="M357.2,116.7a21.61,21.61,0,0,0,18.51-6.64c3.23-3.5,5.48-8.24,9.83-10.19a12.09,12.09,0,0,1,9.37.12,23.49,23.49,0,0,1,7.78,5.56c-1.94,7.9,1,16.08,3.94,23.67a4.11,4.11,0,0,0,1.47,2.19c1.31.78,3-.17,3.93-1.39,1.46-2,1.81-4.52,1.94-7a42,42,0,0,0-2.12-16.45,28.73,28.73,0,0,0-9.58-13.38,27.16,27.16,0,0,0-19.76-4.81,33.3,33.3,0,0,0-18.32,9.22,19.5,19.5,0,0,0-5.35,7.94" style="fill:#263238"></path><path d="M346,98.1a2.24,2.24,0,0,0,.2.87,4.18,4.18,0,0,0,1.68,1.91,6.45,6.45,0,0,0,3.94.8,11.14,11.14,0,0,0,2.5-.46,5.54,5.54,0,0,0,2.44-1.52,3.62,3.62,0,0,0,.91-3,3.17,3.17,0,0,0-2.47-2.33,3.86,3.86,0,0,0-1.85,0,3.36,3.36,0,0,0-1.65,1,4.63,4.63,0,0,0-1.07,3.74,5.34,5.34,0,0,0,2.05,3.52,8.21,8.21,0,0,0,3.94,1.63,13.38,13.38,0,0,0,8.55-2,38.19,38.19,0,0,0,6.95-5.44,49,49,0,0,1,6.27-5.18A15.23,15.23,0,0,1,385.11,89a14.45,14.45,0,0,1,6.26.82,18.12,18.12,0,0,1,7.48,5.28c.72.83,1.22,1.53,1.56,2a6.8,6.8,0,0,0,.52.72s0-.08-.1-.21-.18-.32-.34-.57A17.36,17.36,0,0,0,399,95a17.83,17.83,0,0,0-7.51-5.5,14.61,14.61,0,0,0-6.42-.89,15.48,15.48,0,0,0-7,2.58,48.82,48.82,0,0,0-6.35,5.21,38.35,38.35,0,0,1-6.86,5.36,13,13,0,0,1-8.23,2,7.62,7.62,0,0,1-3.7-1.52,4.87,4.87,0,0,1-1.9-3.2,4.2,4.2,0,0,1,.94-3.38,3.08,3.08,0,0,1,3.07-.88,2.78,2.78,0,0,1,2.19,2,3.24,3.24,0,0,1-.8,2.7,5.14,5.14,0,0,1-2.27,1.45,10.51,10.51,0,0,1-2.42.49,6.32,6.32,0,0,1-3.82-.69,4.18,4.18,0,0,1-1.69-1.78A8.41,8.41,0,0,1,346,98.1Z" style="fill:#455a64"></path><path d="M419.92,107a16.49,16.49,0,0,1-3,1.19,8.88,8.88,0,0,1-3.44.07,14.57,14.57,0,0,1-4-1.37,12,12,0,0,1-5.27-5.48,25.24,25.24,0,0,1-1.06-3.06,2.8,2.8,0,0,0,.06.88,9.92,9.92,0,0,0,.68,2.32,11.65,11.65,0,0,0,5.36,5.8,14.46,14.46,0,0,0,4.19,1.37,8.76,8.76,0,0,0,3.6-.18,8,8,0,0,0,2.21-1C419.7,107.28,419.94,107.07,419.92,107Z" style="fill:#455a64"></path><path d="M420.38,114.44c0-.09-1.17.32-3.1.45a14,14,0,0,1-12.8-6.37c-1.06-1.61-1.43-2.78-1.52-2.74a2.4,2.4,0,0,0,.21.82,12.08,12.08,0,0,0,1,2.11,13.54,13.54,0,0,0,13.14,6.53,11.7,11.7,0,0,0,2.28-.47A2.39,2.39,0,0,0,420.38,114.44Z" style="fill:#455a64"></path><path d="M396.05,132.71a.27.27,0,0,0,.27-.26.26.26,0,0,0-.23-.29.27.27,0,0,0-.28.25A.27.27,0,0,0,396.05,132.71Z" style="fill:#eb996e"></path><path d="M391.57,132.26a.33.33,0,1,0-.23-.34A.29.29,0,0,0,391.57,132.26Z" style="fill:#eb996e"></path><path d="M388.62,132.55c.14,0,.26-.19.26-.42s-.11-.41-.25-.41-.26.18-.26.41S388.48,132.54,388.62,132.55Z" style="fill:#eb996e"></path><path d="M394.24,135.71c.14,0,.24-.11.23-.2s-.13-.14-.27-.13-.24.11-.23.2S394.1,135.72,394.24,135.71Z" style="fill:#eb996e"></path><path d="M390.13,135.27a.27.27,0,0,0,.24-.3.26.26,0,0,0-.26-.27.26.26,0,0,0-.24.29A.26.26,0,0,0,390.13,135.27Z" style="fill:#eb996e"></path><path d="M369,135.35a.27.27,0,0,0,.27-.27.26.26,0,0,0-.23-.3.27.27,0,0,0-.27.27A.27.27,0,0,0,369,135.35Z" style="fill:#eb996e"></path><path d="M366,135.44a.28.28,0,0,0,.24-.32.26.26,0,1,0-.24.32Z" style="fill:#eb996e"></path><path d="M371.66,135.1a.22.22,0,1,0,0-.44.23.23,0,0,0-.26.2A.23.23,0,0,0,371.66,135.1Z" style="fill:#eb996e"></path><path d="M369.83,138.34a.27.27,0,0,0,.32-.21.25.25,0,1,0-.48-.14A.27.27,0,0,0,369.83,138.34Z" style="fill:#eb996e"></path><path d="M367.23,138.15a.24.24,0,0,0,.15-.3.23.23,0,0,0-.31-.1.22.22,0,1,0,.16.4Z" style="fill:#eb996e"></path><path d="M274.12,238.24c5.49-6.53,11.79-9.67,20-15.2-4,18.94-2.37,32.9,4.1,47.67L290,281.43s-18,6.05-20.85-10.41c-.64-3.68-1.14-6.8-1.53-9.41A29.55,29.55,0,0,1,274.12,238.24Z" style="fill:#FFC100"></path><path d="M352.59,216.73a1.73,1.73,0,0,1-.35.19c-.23.12-.59.27-1,.51a25.19,25.19,0,0,0-3.75,2.43,33.75,33.75,0,0,0-9.78,13,65.76,65.76,0,0,0-3.77,10.7c-1.07,3.94-1.75,8.26-2.57,12.79-1.63,9.07-3.56,19-5.67,29.43s-4.14,20.34-5.9,29.38-3.24,17.2-4.4,24.06-2,12.44-2.57,16.29c-.28,1.91-.51,3.4-.66,4.44-.08.49-.14.87-.19,1.15a1.76,1.76,0,0,1-.08.39,2,2,0,0,1,0-.4c0-.28.08-.67.14-1.15.13-1.05.32-2.54.56-4.45.51-3.87,1.31-9.45,2.41-16.33s2.55-15.05,4.29-24.09,3.76-19,5.86-29.39,4.05-20.35,5.71-29.41c.83-4.52,1.53-8.86,2.62-12.82a65.35,65.35,0,0,1,3.86-10.75,33.41,33.41,0,0,1,10-13,22.42,22.42,0,0,1,3.82-2.36c.46-.23.83-.37,1.07-.47Z" style="fill:#455a64"></path><path d="M387.73,255.57c.13,0-6.05,25.36-13.81,56.54s-14.18,56.46-14.32,56.42,6-25.34,13.81-56.54S387.59,255.54,387.73,255.57Z" style="fill:#455a64"></path><path d="M439.93,202a17.27,17.27,0,0,0-19.47,16.18L417.12,273h0l-72.89,10.47-2.7,31.83L425,310.79a29.53,29.53,0,0,0,16.54-6.13h0a29.52,29.52,0,0,0,11.44-22.51l1.66-58.77S456.11,204.31,439.93,202Z" style="fill:#FFC100"></path><path d="M427,286.9a2.11,2.11,0,0,1-.05-.32q0-.36-.09-.93l-.07-.69-.17-.81c-.06-.3-.12-.62-.2-.95s-.22-.68-.35-1.05a13.88,13.88,0,0,0-2.9-4.82,16.14,16.14,0,0,0-6.15-4.15l-.14-.05V273c.44-10,.81-23.61,1.3-38.56.28-7.83.54-15.29,1-22.08a45.38,45.38,0,0,1,1.55-9.55,20.53,20.53,0,0,1,3.83-7.5,16.74,16.74,0,0,1,5.49-4.27,12.72,12.72,0,0,1,5.08-1.28,10,10,0,0,1,3.29.42l.81.31.27.12a11.66,11.66,0,0,0-4.36-.65,12.65,12.65,0,0,0-5,1.35,16.58,16.58,0,0,0-5.34,4.24,20.4,20.4,0,0,0-3.7,7.38,45.69,45.69,0,0,0-1.48,9.46c-.39,6.77-.64,14.24-.92,22.07-.49,14.94-.91,28.54-1.44,38.56l-.13-.19a16.28,16.28,0,0,1,6.25,4.3,13.9,13.9,0,0,1,2.88,5c.12.38.23.73.33,1.07s.12.67.18,1,.1.58.15.83,0,.49,0,.7c0,.39,0,.7,0,.94A1.57,1.57,0,0,1,427,286.9Z" style="fill:#263238"></path><path d="M456.51,213a1,1,0,0,1,0,.29l0,.82q0,1.14-.12,3.15c-.09,2.78-.23,6.73-.4,11.6-.32,9.79-.52,23.32-.73,38.27-.08,7.46-.27,14.69-2.16,21a29.71,29.71,0,0,1-4,8.32,34.33,34.33,0,0,1-5.27,6.07,33.37,33.37,0,0,1-9.78,6.24,22.21,22.21,0,0,1-4.06,1.29l.26-.1.78-.26a29.58,29.58,0,0,0,2.94-1.12,34.22,34.22,0,0,0,9.61-6.32A32.21,32.21,0,0,0,452.65,288c1.83-6.19,2-13.38,2.09-20.84.21-14.95.47-28.48.88-38.28.2-4.89.4-8.85.57-11.59q.13-2,.21-3.15c0-.33.05-.6.07-.82A1.33,1.33,0,0,1,456.51,213Z" style="fill:#263238"></path><path d="M354.13,217.75a35.69,35.69,0,0,1,1.08-6,36.63,36.63,0,0,1,1.59-5.92,37.15,37.15,0,0,1-1.08,6A36.31,36.31,0,0,1,354.13,217.75Z" style="fill:#263238"></path><path d="M355.14,192.39a23.91,23.91,0,0,0-.74-5.43,24.11,24.11,0,0,0-2.47-4.89,10.94,10.94,0,0,1,3.21,10.32Z" style="fill:#263238"></path><path d="M277.67,275.13l6.71,10.53s3.84,18.68,7.7,20.86,18.85,13.12,20.1,11.89-1.72-5.59-1.72-5.59,5.79,5.53,6.84,4.05-3.14-7.31-3.14-7.31,3.9,6.48,5.9,4.41-1.77-7.4-1.77-7.4,5.34,3.23,5.38.52-8.39-13.22-8.39-13.22l-11-17.56-11.06-14.77S277.67,263.57,277.67,275.13Z" style="fill:#ffbe9d"></path><path d="M300.67,286l-.13.29s-20.33,10.2-19.58,14.8c.64,4,3.25,3.13,3.25,3.13s-3.17,3.2.24,5.9c1.75,1.38,4.61-.51,4.61-.51a4.53,4.53,0,0,0,3.3,5.57s1.22,3.87,3.33,3.33c6.34-1.63,17.61-8.49,20.74-9.45,5.95-1.83,8.28-4.27,8.28-4.27l17.64,1.54,1.85-21.82-36.83-5.24C304.36,279.05,301.91,283.25,300.67,286Z" style="fill:#ffbe9d"></path><path d="M318.06,280.79a8.78,8.78,0,0,1-1.66,0c-1.07-.07-2.62-.18-4.52-.45-.48-.08-1-.16-1.49-.28s-1-.34-1.56-.43a5.39,5.39,0,0,0-3.36.37,5.32,5.32,0,0,0-2.36,2.88,11.58,11.58,0,0,1-1,1.87,9.64,9.64,0,0,1-1.5,1.63,22.62,22.62,0,0,1-3.57,2.41l-3.47,1.93c-2.21,1.22-4.18,2.36-5.78,3.4s-2.83,2-3.67,2.62a11.11,11.11,0,0,1-1.32,1,1.7,1.7,0,0,1,.29-.32c.2-.2.5-.49.9-.84a35.62,35.62,0,0,1,3.6-2.78c1.58-1.08,3.54-2.26,5.75-3.5l3.44-2a20.85,20.85,0,0,0,3.48-2.35,9.07,9.07,0,0,0,2.43-3.33,10.73,10.73,0,0,1,1-1.8,4.27,4.27,0,0,1,1.58-1.29,5.76,5.76,0,0,1,3.65-.36c.58.11,1.09.34,1.57.46s1,.22,1.46.3c1.87.32,3.41.48,4.47.61A12.93,12.93,0,0,1,318.06,280.79Z" style="fill:#eb996e"></path><path d="M299.72,295.29a16.13,16.13,0,0,1-2.38,1.18c-1.49.68-3.53,1.66-5.73,2.84s-4.14,2.35-5.53,3.22a15.3,15.3,0,0,1-2.29,1.34,12,12,0,0,1,2.09-1.65,56.06,56.06,0,0,1,11.31-6.09A11.68,11.68,0,0,1,299.72,295.29Z" style="fill:#eb996e"></path><path d="M300.86,304.27c.06.15-2.8,1.24-6.18,2.88s-6,3.17-6.1,3A6.76,6.76,0,0,1,290.2,309a44.14,44.14,0,0,1,4.26-2.33,43.68,43.68,0,0,1,4.47-1.87A7.42,7.42,0,0,1,300.86,304.27Z" style="fill:#eb996e"></path><path d="M302.36,310.24a59.89,59.89,0,0,1-9.92,5.06,29.37,29.37,0,0,1,4.84-2.77A30.27,30.27,0,0,1,302.36,310.24Z" style="fill:#eb996e"></path><path d="M328.12,301s0,.13-.14.36a6.09,6.09,0,0,1-.54.95,11.46,11.46,0,0,1-2.88,2.79,33.71,33.71,0,0,1-5.2,2.86l-6.58,3c-4.67,2.14-8.9,4-12,5.4L297.14,318a9.26,9.26,0,0,1-1.37.52,6.82,6.82,0,0,1,1.29-.7l3.58-1.74c3-1.44,7.26-3.4,11.93-5.53l6.59-3a36.23,36.23,0,0,0,5.19-2.72,12.54,12.54,0,0,0,2.93-2.61C327.84,301.48,328.07,301,328.12,301Z" style="fill:#eb996e"></path></g></svg>